<svg width="138" height="40" viewBox="0 0 138 40" fill="none" xmlns="http://www.w3.org/2000/svg">
<circle cx="16.5002" cy="15.5" r="7.5" fill="#F4532B"/>
<path d="M18.2278 13.212C18.8444 13.2123 19.3264 13.7449 19.2649 14.3585L17.5833 31.0616C17.5297 31.5942 17.0814 32.0001 16.5461 32.0001H2.82837C2.29571 32 1.84892 31.5981 1.79224 31.0685L0.00610352 14.3654C-0.0597636 13.7493 0.42365 13.212 1.04321 13.212H18.2278ZM3.83911 25.7072L4.23364 29.3937H15.1321L15.5032 25.7072H3.83911ZM3.56079 23.1017H15.7649L16.4983 15.8185H2.78247L3.56079 23.1017Z" fill="#212121"/>
<path d="M52.1086 19.4736C53.7228 19.4737 55.0304 20.1691 56.052 21.5381H56.093V19.8213H58.9944V31.6523H56.093V29.916H56.052C55.01 31.3053 53.7023 31.9999 52.1086 32C50.3513 32 48.9201 31.4078 47.8167 30.2227C46.7132 29.0375 46.1624 27.5452 46.1624 25.7266C46.1624 23.9286 46.7135 22.437 47.8167 21.252C48.9201 20.0668 50.3513 19.4736 52.1086 19.4736ZM86.3918 19.4736C88.006 19.4737 89.3136 20.1691 90.3352 21.5381H90.3762V19.8213H93.2776V31.6523H90.3762V29.916H90.3352C89.2932 31.3053 87.9855 31.9999 86.3918 32C84.6347 32 83.2042 31.4075 82.1008 30.2227C80.9974 29.0375 80.4456 27.5452 80.4456 25.7266C80.4456 23.9284 80.9974 22.4371 82.1008 21.252C83.2043 20.0668 84.6345 19.4736 86.3918 19.4736ZM109.113 19.4736C110.87 19.4736 112.362 20.0864 113.609 21.292C114.855 22.4976 115.468 23.9897 115.468 25.7266C115.468 26.1352 115.406 26.5848 115.304 27.0547H105.761C105.924 27.729 106.313 28.3015 106.926 28.7715C107.559 29.2414 108.275 29.4863 109.072 29.4863C110.236 29.4863 111.217 28.8936 111.728 28.0967H114.875C114.446 29.2819 113.71 30.2223 112.648 30.9375C111.585 31.6527 110.4 32 109.072 32C107.294 31.9999 105.761 31.4076 104.515 30.2021C103.268 28.9965 102.656 27.5043 102.656 25.7266C102.656 23.9489 103.289 22.478 104.535 21.2725C105.782 20.0669 107.314 19.4737 109.113 19.4736ZM130.725 19.4736C132.543 19.4737 134.076 20.0669 135.323 21.2725C136.569 22.478 137.202 23.949 137.202 25.7266C137.202 27.5043 136.569 28.9965 135.323 30.2021C134.076 31.4077 132.543 32 130.725 32C128.927 32 127.394 31.4076 126.127 30.2021C124.881 28.9965 124.247 27.5043 124.247 25.7266C124.247 23.9489 124.881 22.478 126.127 21.2725C127.394 20.0668 128.927 19.4736 130.725 19.4736ZM36.2151 16C37.9277 16 39.4452 16.4357 40.7688 17.2969C41.2216 17.5738 41.6517 17.897 42.0588 18.2676C43.6323 19.7184 44.429 21.5783 44.429 23.8057C44.429 23.8262 44.4271 23.8467 44.427 23.8672C44.4271 23.8876 44.429 23.9082 44.429 23.9287C44.4289 24.066 44.4224 24.202 44.4124 24.3369C44.324 25.8555 43.8508 27.1948 42.9954 28.3594L44.1448 29.4482L41.9485 31.7656L40.6448 30.5303C39.3504 31.3335 37.8749 31.7334 36.2151 31.7334C34.4985 31.7334 32.9773 31.2967 31.6516 30.4316C31.2021 30.1559 30.7748 29.834 30.3704 29.4658C28.7972 28.0151 28.0003 26.1558 28.0002 23.9287C28.0002 23.9079 28.0011 23.8869 28.0012 23.8662C28.0011 23.8461 28.0002 23.8259 28.0002 23.8057C28.0002 23.6629 28.007 23.5211 28.0178 23.3809C28.1382 21.3739 28.9284 19.6766 30.3909 18.2891C31.9847 16.7565 33.9265 16 36.2151 16ZM74.1477 19.4736C75.4552 19.4737 76.4972 19.9234 77.2532 20.8223C78.0092 21.7009 78.3977 22.8862 78.3977 24.3369V31.6523H75.4963V24.2148C75.4963 23.0501 74.5966 22.1299 73.4319 22.1299C72.2877 22.1301 71.3684 23.0502 71.3684 24.2148V31.6523H68.467V24.2148C68.467 23.0501 67.5673 22.1299 66.4026 22.1299C65.2584 22.13 64.3391 23.0502 64.3391 24.2148V31.6523H61.4377V19.8213H64.1145V21.4355H64.1555C64.9115 20.1279 65.9533 19.4737 67.2405 19.4736C68.5891 19.4736 69.6928 20.1485 70.551 21.5176C71.3888 20.3733 72.7786 19.4736 74.1477 19.4736ZM101.81 22.416H101.136C99.7466 22.416 98.6221 23.4788 98.5198 24.8682V31.6523H95.7209V19.8213H98.2952V21.4561H98.3362C99.1127 20.1278 100.196 19.4736 101.565 19.4736H101.81V22.416ZM123.601 22.416H122.927C121.538 22.416 120.413 23.4788 120.311 24.8682V31.6523H117.512V19.8213H120.086V21.4561H120.127C120.904 20.1279 121.987 19.4737 123.356 19.4736H123.601V22.416ZM130.725 22.0488C129.683 22.0488 128.845 22.3961 128.211 23.0908C127.578 23.7855 127.272 24.6641 127.272 25.7266C127.272 26.8095 127.578 27.6881 128.211 28.3828C128.845 29.0776 129.683 29.4248 130.725 29.4248C132.829 29.4247 134.178 27.913 134.178 25.7266C134.178 24.6438 133.872 23.7651 133.239 23.0908C132.605 22.3961 131.767 22.0489 130.725 22.0488ZM52.6399 22.1299C51.6388 22.1299 50.8211 22.4774 50.1672 23.1924C49.5134 23.9075 49.1858 24.7458 49.1858 25.7266C49.1858 26.7074 49.5133 27.5661 50.1672 28.2812C50.8211 28.9963 51.6387 29.3438 52.6399 29.3438C53.641 29.3437 54.4587 28.9964 55.1125 28.2812C55.7664 27.5661 56.093 26.7074 56.093 25.7266C56.093 24.7458 55.7664 23.9075 55.1125 23.1924C54.4587 22.4773 53.641 22.1299 52.6399 22.1299ZM86.9231 22.1299C85.922 22.1299 85.1043 22.4774 84.4504 23.1924C83.7966 23.9075 83.469 24.7458 83.469 25.7266C83.469 26.7074 83.7965 27.5661 84.4504 28.2812C85.1043 28.9963 85.9219 29.3438 86.9231 29.3438C87.9242 29.3437 88.7419 28.9964 89.3958 28.2812C90.0496 27.5661 90.3762 26.7074 90.3762 25.7266C90.3762 24.7458 90.0496 23.9075 89.3958 23.1924C88.7419 22.4773 87.9242 22.1299 86.9231 22.1299ZM36.2151 18.7783C35.0748 18.7783 34.0638 19.0768 33.1936 19.6846C32.966 19.8516 32.7467 20.0397 32.5364 20.25C31.5494 21.2571 31.04 22.463 31.0256 23.8672C31.0402 25.271 31.5497 26.4765 32.5364 27.4834C32.6616 27.6112 32.7908 27.7309 32.9231 27.8428C33.8483 28.5798 34.9458 28.9551 36.2151 28.9551C37.04 28.955 37.7966 28.7981 38.4817 28.4814L37.3127 27.374L39.509 25.0566L40.7952 26.2754C41.1901 25.5507 41.3944 24.7483 41.4036 23.8672C41.3892 22.463 40.8798 21.2571 39.8928 20.25C39.7678 20.1225 39.6391 20.0032 39.5071 19.8916C38.5818 19.1542 37.4846 18.7784 36.2151 18.7783ZM109.113 21.9258C107.396 21.9258 106.109 23.0708 105.802 24.542H112.362C112.055 23.0503 110.829 21.9258 109.113 21.9258Z" fill="#212121"/>
</svg>
